<svg xmlns="http://www.w3.org/2000/svg" xmlns:xlink="http://www.w3.org/1999/xlink" width="703.24" height="367.72" viewBox="0 0 703.24 367.72"><defs><style>.a,.g,.w,.z{fill:#fff;}.a,.b{stroke:#186fc5;}.a,.b,.c,.d,.s{stroke-miterlimit:10;}.a,.b,.c{stroke-width:2px;}.aa,.b,.c,.s,.v{fill:none;}.c{stroke:#bed5f6;}.d{fill:#bed5f6;stroke:#bfd4ed;}.e,.i{fill:#46668c;}.e,.h{opacity:0.3;mix-blend-mode:multiply;}.e,.h,.x{isolation:isolate;}.ac,.f{fill:#186fc5;}.j{fill:#e2f1ff;}.k{fill:#ccc;}.l{fill:#424348;}.m{fill:#49545a;}.n{fill:#d5d5d5;}.o{fill:#166ec5;}.p{fill:#1c6ab7;}.q{fill:url(#c);}.r{fill:#ededf7;}.s{stroke:#707070;}.t{fill:url(#d);}.u{fill:url(#e);}.v{stroke:#bdbdc6;stroke-width:0.5px;}.aa,.v{stroke-linecap:round;stroke-linejoin:round;}.w{opacity:0.27;}.x{mix-blend-mode:screen;fill:url(#f);}.ab,.y{fill:#3c3f54;}.z{font-size:5.753px;font-family:Montserrat-Bold, Montserrat;font-weight:700;}.aa{stroke:#3c3f54;stroke-width:0.965px;}.ab{font-size:5.927px;}.ab,.ac{font-family:Montserrat-Medium, Montserrat;font-weight:500;}.ac{font-size:3.487px;}.ad{filter:url(#a);}</style><filter id="a" x="541.24" y="0" width="162" height="137" filterUnits="userSpaceOnUse"><feOffset input="SourceAlpha"/><feGaussianBlur stdDeviation="3" result="b"/><feFlood flood-opacity="0.161"/><feComposite operator="in" in2="b"/><feComposite in="SourceGraphic"/></filter><linearGradient id="c" x1="0.579" y1="1.435" x2="0.519" y2="0.739" gradientUnits="objectBoundingBox"><stop offset="0" stop-color="#414042"/><stop offset="1" stop-color="#231f20"/></linearGradient><linearGradient id="d" y1="0.5" x2="1" y2="0.5" gradientUnits="objectBoundingBox"><stop offset="0.048" stop-color="#a7a9ac"/><stop offset="0.218" stop-color="#bdbfc1"/><stop offset="0.398" stop-color="#d1d3d4"/><stop offset="0.535" stop-color="#caccce"/><stop offset="0.721" stop-color="#b9bbbd"/><stop offset="0.935" stop-color="#9d9fa1"/><stop offset="1" stop-color="#939598"/></linearGradient><linearGradient id="e" y1="0.5" x2="1" y2="0.5" gradientUnits="objectBoundingBox"><stop offset="0" stop-color="#d1d3d4"/><stop offset="1" stop-color="#fff"/></linearGradient><linearGradient id="f" x1="1.194" y1="-0.255" x2="0.2" y2="0.827" gradientUnits="objectBoundingBox"><stop offset="0" stop-color="#d1d3d4" stop-opacity="0"/><stop offset="0.373" stop-color="#d1d3d4" stop-opacity="0.008"/><stop offset="0.507" stop-color="#d2d4d5" stop-opacity="0.035"/><stop offset="0.603" stop-color="#d4d6d7" stop-opacity="0.078"/><stop offset="0.68" stop-color="#d7d9da" stop-opacity="0.145"/><stop offset="0.746" stop-color="#dbddde" stop-opacity="0.231"/><stop offset="0.805" stop-color="#e0e1e2" stop-opacity="0.341"/><stop offset="0.858" stop-color="#e6e7e8" stop-opacity="0.467"/><stop offset="0.907" stop-color="#edeeee" stop-opacity="0.616"/><stop offset="0.952" stop-color="#f5f5f5" stop-opacity="0.784"/><stop offset="0.993" stop-color="#fdfdfd" stop-opacity="0.965"/><stop offset="1" stop-color="#fff"/></linearGradient></defs><g transform="translate(-321.76 -382)"><g transform="translate(161.967 310.906)"><g transform="translate(160.793 86.965)"><path class="a" d="M317.607,433.11H182.459a21.691,21.691,0,0,1-21.666-21.665V108.63a21.69,21.69,0,0,1,21.666-21.665H317.607a21.69,21.69,0,0,1,21.666,21.665V411.445A21.691,21.691,0,0,1,317.607,433.11Z" transform="translate(-160.793 -86.965)"/><g transform="translate(62.234 9.346)"><path class="b" d="M262.391,103.5H226.216A3.216,3.216,0,0,1,223,100.291v-.77a3.216,3.216,0,0,1,3.212-3.213h36.174a3.216,3.216,0,0,1,3.212,3.213v.77A3.216,3.216,0,0,1,262.391,103.5Z" transform="translate(-223.004 -96.308)"/><g transform="translate(46.815)"><path class="b" d="M273.4,103.5a3.6,3.6,0,1,1,3.6-3.6A3.6,3.6,0,0,1,273.4,103.5Z" transform="translate(-269.802 -96.308)"/></g></g><path class="a" d="M305.83,98.869H294.98a14.808,14.808,0,0,1-14.537,12.011H219.617A14.808,14.808,0,0,1,205.08,98.869H194.23a24.066,24.066,0,0,0-24.066,24.066v274.2A24.066,24.066,0,0,0,194.23,421.2h111.6A24.066,24.066,0,0,0,329.9,397.132v-274.2A24.066,24.066,0,0,0,305.83,98.869Z" transform="translate(-160.789 -86.961)"/></g><g transform="translate(182.025 133.941)"><g transform="translate(0 0)"><rect class="c" width="34.459" height="34.459" transform="translate(0)"/><line class="c" x1="34.459" y2="34.459"/><line class="c" x2="34.459" y2="34.459" transform="translate(0)"/></g><g transform="translate(50.083 0)"><rect class="c" width="34.459" height="34.459" transform="translate(0)"/><line class="c" x1="34.459" y2="34.459"/><line class="c" x2="34.459" y2="34.459" transform="translate(0)"/></g><g transform="translate(100.165 0)"><rect class="c" width="34.459" height="34.459" transform="translate(0)"/><line class="c" x1="34.459" y2="34.459"/><line class="c" x2="34.459" y2="34.459" transform="translate(0)"/></g></g><g transform="translate(182.025 193.142)"><g transform="translate(0 0)"><rect class="c" width="34.459" height="34.459" transform="translate(0)"/><line class="c" x1="34.459" y2="34.459"/><line class="c" x2="34.459" y2="34.459" transform="translate(0)"/></g><g transform="translate(50.083 0)"><rect class="c" width="34.459" height="34.459" transform="translate(0)"/><line class="c" x1="34.459" y2="34.459"/><line class="c" x2="34.459" y2="34.459" transform="translate(0)"/></g><g transform="translate(100.165 0)"><rect class="c" width="34.459" height="34.459" transform="translate(0)"/><line class="c" x1="34.459" y2="34.459"/><line class="c" x2="34.459" y2="34.459" transform="translate(0)"/></g></g><g transform="translate(182.025 252.343)"><rect class="c" width="34.459" height="34.459" transform="translate(0)"/><line class="c" x1="34.459" y2="34.459"/><line class="c" x2="34.459" y2="34.459" transform="translate(0)"/><g transform="translate(50.083)"><rect class="c" width="34.459" height="34.459" transform="translate(0)"/><line class="c" x1="34.459" y2="34.459"/><line class="c" x2="34.459" y2="34.459" transform="translate(0)"/></g><g transform="translate(100.165)"><rect class="c" width="34.459" height="34.459" transform="translate(0)"/><line class="c" x1="34.459" y2="34.459"/><line class="c" x2="34.459" y2="34.459" transform="translate(0)"/></g></g><g transform="translate(182.025 311.544)"><rect class="c" width="34.459" height="34.459" transform="translate(0)"/><line class="c" x1="34.459" y2="34.459"/><line class="c" x2="34.459" y2="34.459" transform="translate(0)"/><g transform="translate(50.083)"><rect class="c" width="34.459" height="34.459" transform="translate(0)"/><line class="c" x1="34.459" y2="34.459"/><line class="c" x2="34.459" y2="34.459" transform="translate(0)"/></g><g transform="translate(100.165)"><rect class="c" width="34.459" height="34.459" transform="translate(0)"/><line class="c" x1="34.459" y2="34.459"/><line class="c" x2="34.459" y2="34.459" transform="translate(0)"/></g></g><g transform="translate(183.725 373.141)"><path class="d" d="M301.412,374.824a5.615,5.615,0,0,0,7.385,8.429l5.675,5.675,1.044-1.044-5.675-5.675a5.615,5.615,0,0,0-8.429-7.385Zm6.916,6.916a4.152,4.152,0,1,1,0-5.872A4.158,4.158,0,0,1,308.327,381.739Z" transform="translate(-183.673 -373.034)"/><path class="c" d="M285.488,389.071H191.735a8.018,8.018,0,0,1-8.019-8.018h0a8.019,8.019,0,0,1,8.019-8.019h93.753a8.019,8.019,0,0,1,8.019,8.019h0A8.018,8.018,0,0,1,285.488,389.071Z" transform="translate(-183.716 -373.034)"/></g><g transform="translate(226.121 189.752)"><path class="e" d="M3.98,0H38.734a3.98,3.98,0,0,1,3.98,3.98V38.734a3.98,3.98,0,0,1-3.98,3.98H3.979A3.979,3.979,0,0,1,0,38.734V3.98A3.98,3.98,0,0,1,3.98,0Z" transform="matrix(0.091, -0.996, 0.996, 0.091, 1.47, 44.653)"/><g transform="translate(0 0)"><rect class="f" width="42.713" height="42.713" rx="3.979" transform="matrix(0.996, 0.091, -0.091, 0.996, 3.896, 0)"/><path class="g" d="M260.328,212.887l-18.766-13.613a1.966,1.966,0,0,0-3.113,1.413l-2.059,22.467a1.967,1.967,0,0,0,2.729,1.989l20.824-8.854A1.966,1.966,0,0,0,260.328,212.887Z" transform="translate(-226.093 -189.71)"/></g></g><g transform="translate(175.419 301.746)"><g class="h" transform="translate(2.167 1.499)"><path class="i" d="M3.979,0H38.734a3.98,3.98,0,0,1,3.98,3.98V38.734a3.98,3.98,0,0,1-3.98,3.98H3.98A3.98,3.98,0,0,1,0,38.734V3.979A3.979,3.979,0,0,1,3.979,0Z" transform="translate(0 3.661) rotate(-4.916)"/><g transform="translate(5.167 10.235)"><path class="i" d="M182.8,322.373c-.454-5.273,2-7.617,6.748-8.106l.735,2.473c-2.732.516-3.971,2.032-3.574,4.292l2.477-.213.549,6.391-6.471.557Zm10.147-.872c-.454-5.273,2-7.617,6.748-8.106l.735,2.472c-2.732.517-3.969,2.032-3.574,4.292l2.477-.213.549,6.392-6.471.556Z" transform="translate(-182.746 -313.395)"/><path class="i" d="M201.094,338.486c2.733-.516,3.97-2.032,3.575-4.292l-2.477.213-.55-6.391,6.471-.556.464,5.393c.454,5.273-2,7.617-6.747,8.106Zm10.147-.872c2.733-.516,3.97-2.032,3.575-4.292l-2.477.213-.55-6.391,6.471-.557.464,5.393c.454,5.273-2,7.617-6.748,8.106Z" transform="translate(-182.739 -313.39)"/></g></g><g transform="translate(0 0)"><path class="j" d="M3.979,0H38.734a3.98,3.98,0,0,1,3.98,3.98V38.734a3.98,3.98,0,0,1-3.98,3.98H3.98A3.98,3.98,0,0,1,0,38.734V3.979A3.979,3.979,0,0,1,3.979,0Z" transform="matrix(0.996, -0.086, 0.086, 0.996, 0, 3.661)"/><g transform="translate(5.167 10.235)"><path class="g" d="M180.632,320.875c-.453-5.273,2-7.617,6.748-8.106l.736,2.473c-2.733.516-3.971,2.032-3.575,4.292l2.477-.213.55,6.391-6.471.556ZM190.779,320c-.453-5.273,2-7.617,6.748-8.106l.736,2.472c-2.733.517-3.97,2.032-3.575,4.292l2.477-.213.55,6.392-6.471.556Z" transform="translate(-180.579 -311.897)"/><path class="g" d="M198.928,336.988c2.732-.516,3.97-2.032,3.574-4.292l-2.477.213-.549-6.391,6.471-.557.464,5.394c.453,5.273-2,7.617-6.749,8.106Zm10.147-.872c2.732-.517,3.969-2.032,3.574-4.292l-2.477.213-.549-6.392,6.471-.556.464,5.393c.453,5.273-2,7.617-6.749,8.106Z" transform="translate(-180.572 -311.892)"/></g></g></g><g transform="translate(176.242 247.647)"><path class="e" d="M3.98,0H38.734a3.98,3.98,0,0,1,3.98,3.98V38.734a3.979,3.979,0,0,1-3.979,3.979H3.98A3.98,3.98,0,0,1,0,38.734V3.98A3.98,3.98,0,0,1,3.98,0Z" transform="translate(1.376 44.449) rotate(-85.365)"/><g transform="translate(0 0)"><path class="k" d="M3.98,0H38.734a3.979,3.979,0,0,1,3.979,3.979V38.734a3.98,3.98,0,0,1-3.98,3.98H3.979A3.979,3.979,0,0,1,0,38.734V3.98A3.98,3.98,0,0,1,3.98,0Z" transform="translate(3.452 0) rotate(4.635)"/><path class="g" d="M206.584,280.164l.407-4.632-2.769-.724a8.992,8.992,0,0,0-.422-1.34l1.855-2.18-2.988-3.562L200.2,269.17a9.027,9.027,0,0,0-1.246-.649l-.23-2.852-2.316-.2-2.316-.2-.723,2.768a8.975,8.975,0,0,0-1.342.423l-2.18-1.855-3.562,2.987,1.446,2.469a9.042,9.042,0,0,0-.649,1.247l-2.852.23-.407,4.632,2.768.723a9.049,9.049,0,0,0,.423,1.342l-1.855,2.179,2.987,3.563,2.47-1.447a8.972,8.972,0,0,0,1.246.65l.23,2.852,2.316.2,2.316.2.723-2.768a9.038,9.038,0,0,0,1.341-.422l2.179,1.854,3.563-2.987-1.447-2.469a8.984,8.984,0,0,0,.65-1.247Zm-11.779,3.521a6.864,6.864,0,1,1,7.438-6.236A6.863,6.863,0,0,1,194.805,283.685Z" transform="translate(-176.233 -247.581)"/><path class="g" d="M215.922,263.124l.289-3.283-1.963-.513a6.28,6.28,0,0,0-.3-.95l1.314-1.545-2.118-2.525-1.75,1.024a6.389,6.389,0,0,0-.884-.46l-.163-2.022-1.641-.144-1.642-.144-.513,1.962a6.408,6.408,0,0,0-.95.3l-1.545-1.314-2.526,2.117,1.025,1.751a6.365,6.365,0,0,0-.46.883l-2.022.163-.289,3.283,1.963.512a6.4,6.4,0,0,0,.3.951l-1.315,1.545,2.118,2.525,1.751-1.024a6.366,6.366,0,0,0,.883.46l.163,2.022,1.642.144,1.642.144.512-1.963a6.282,6.282,0,0,0,.95-.3l1.545,1.315,2.526-2.118-1.025-1.75a6.442,6.442,0,0,0,.461-.884Zm-8.348,2.5a4.865,4.865,0,1,1,5.271-4.421A4.865,4.865,0,0,1,207.574,265.62Z" transform="translate(-176.227 -247.585)"/></g></g><g transform="translate(273.583 122.908)"><rect class="e" width="42.713" height="42.713" rx="3.98" transform="translate(0.962 44.223) rotate(-82.078)"/><g transform="translate(0 0)"><g transform="translate(0 0)"><rect class="l" width="42.713" height="42.713" rx="3.98" transform="translate(5.887 0) rotate(7.922)"/></g><g transform="translate(6.083 13.025)"><path class="g" d="M279.622,142.911l.637-4.578,11.456-2.418-.628,4.514-7,.77,6.521,2.652-.627,4.514Z" transform="translate(-279.622 -135.915)"/><path class="g" d="M301.7,137.3l3.828.533L293.3,156.327l-3.828-.533Z" transform="translate(-279.618 -135.914)"/><path class="g" d="M304.174,153.54l7-.771-6.521-2.652.627-4.513,10.362,5.453L315,155.635l-11.456,2.418Z" transform="translate(-279.613 -135.911)"/></g></g></g><g transform="translate(175.151 123.954)"><rect class="e" width="42.713" height="42.713" rx="3.98" transform="matrix(0.996, -0.092, 0.092, 0.996, 1.73, 5.487)"/><g transform="translate(0 0)"><path class="f" d="M3.979,0H38.734a3.98,3.98,0,0,1,3.98,3.98V38.734a3.98,3.98,0,0,1-3.98,3.98H3.98A3.98,3.98,0,0,1,0,38.734V3.979A3.979,3.979,0,0,1,3.979,0Z" transform="translate(0 3.945) rotate(-5.299)"/><g transform="translate(11.334 9.803)"><path class="g" d="M209.909,154.663l-4.709.365-.388,4.4-5.687.44.388-4.4-3.947.306-.388,4.4-5.687.44.388-4.4-2.861.221-.541-6.991,4.057-.314.289-2.864-3.441.266-.541-6.991,4.637-.359.4-4.258,5.687-.44-.4,4.258,3.947-.305.4-4.258,5.687-.44L206.8,138l2.935-.227.54,6.991-4.129.319-.289,2.865,3.513-.272ZM195.953,149l4.455-.345.316-3.45-4.455.345Z" transform="translate(-186.476 -133.739)"/></g></g></g></g><g transform="translate(385 -406)"><g class="ad" transform="matrix(1, 0, 0, 1, -63.24, 788)"><rect class="g" width="144" height="119" transform="translate(550.24 9)"/></g><g transform="translate(457.48 686.672)"><g transform="translate(38.52 126.328)"><path class="m" d="M39.172,128.21h-.246v-1.624l-.406.012v-.2l.652-.074Zm1.895-.652a.766.766,0,0,1-.16.492.558.558,0,0,1-.431.185.539.539,0,0,1-.43-.185.7.7,0,0,1-.16-.492v-.541a.728.728,0,0,1,.16-.5.54.54,0,0,1,.43-.184.559.559,0,0,1,.431.184.8.8,0,0,1,.16.5Zm-.258-.59a.5.5,0,0,0-.086-.321.324.324,0,0,0-.246-.122.33.33,0,0,0-.259.122.589.589,0,0,0-.086.321v.64a.491.491,0,0,0,.1.319.277.277,0,0,0,.246.11.291.291,0,0,0,.246-.11.492.492,0,0,0,.086-.319Zm1.722.59a.7.7,0,0,1-.16.492.594.594,0,0,1-.861,0,.7.7,0,0,1-.16-.492v-.541a.728.728,0,0,1,.16-.5.541.541,0,0,1,.43-.184.558.558,0,0,1,.431.184.8.8,0,0,1,.16.5Zm-.247-.59a.5.5,0,0,0-.1-.321.306.306,0,0,0-.246-.122.287.287,0,0,0-.245.122.5.5,0,0,0-.1.321v.64a.493.493,0,0,0,.1.319.29.29,0,0,0,.245.11.276.276,0,0,0,.246-.11.489.489,0,0,0,.1-.319Zm-2.645,10.456a.373.373,0,0,0,.3-.135.481.481,0,0,0,.111-.344v-.16a.4.4,0,0,1-.148.135.505.505,0,0,1-.2.049.53.53,0,0,1-.419-.173.606.606,0,0,1-.16-.455.71.71,0,0,1,.16-.455.515.515,0,0,1,.406-.172.559.559,0,0,1,.443.172.685.685,0,0,1,.173.492v.554a.67.67,0,0,1-.185.5.639.639,0,0,1-.48.172,1.146,1.146,0,0,1-.2-.012.783.783,0,0,1-.185-.062l.036-.2a.432.432,0,0,0,.16.061.811.811,0,0,0,.185.025Zm.062-.652a.422.422,0,0,0,.221-.062.357.357,0,0,0,.123-.147v-.222a.492.492,0,0,0-.086-.319.325.325,0,0,0-.271-.111.259.259,0,0,0-.221.123.478.478,0,0,0-.086.307.545.545,0,0,0,.074.307.276.276,0,0,0,.247.124Zm2.091.16a.735.735,0,0,1-.159.5.556.556,0,0,1-.431.172.547.547,0,0,1-.419-.172.737.737,0,0,1-.172-.5v-.542a.76.76,0,0,1,.16-.492.558.558,0,0,1,.431-.184.542.542,0,0,1,.431.184.7.7,0,0,1,.159.492Zm-.246-.591a.582.582,0,0,0-.085-.319.318.318,0,0,0-.258-.111.291.291,0,0,0-.246.111.49.49,0,0,0-.086.319v.64a.491.491,0,0,0,.086.319.32.32,0,0,0,.246.123.328.328,0,0,0,.258-.123.5.5,0,0,0,.085-.319Zm-1.255,9.238a.39.39,0,0,1-.086.259.484.484,0,0,1-.21.172.429.429,0,0,1,.246.172.37.37,0,0,1,.1.27.469.469,0,0,1-.16.394.631.631,0,0,1-.431.148.662.662,0,0,1-.442-.148.475.475,0,0,1-.173-.394.432.432,0,0,1,.1-.27.505.505,0,0,1,.258-.185.473.473,0,0,1-.221-.159.475.475,0,0,1,.074-.628.613.613,0,0,1,.405-.123.6.6,0,0,1,.394.123.464.464,0,0,1,.148.369Zm-.2.873a.371.371,0,0,0-.1-.257.344.344,0,0,0-.246-.1.377.377,0,0,0-.258.1.326.326,0,0,0-.1.257.3.3,0,0,0,.1.247.377.377,0,0,0,.258.1.337.337,0,0,0,.345-.345Zm-.049-.861a.329.329,0,0,0-.086-.221.27.27,0,0,0-.21-.086.3.3,0,0,0-.221.086.265.265,0,0,0-.086.221.281.281,0,0,0,.086.222.3.3,0,0,0,.221.085.253.253,0,0,0,.21-.085.331.331,0,0,0,.086-.222Zm1.746.713a.734.734,0,0,1-.159.5.524.524,0,0,1-.431.185.515.515,0,0,1-.419-.185.735.735,0,0,1-.172-.5v-.541a.759.759,0,0,1,.16-.492.557.557,0,0,1,.431-.185.541.541,0,0,1,.431.185.7.7,0,0,1,.159.492Zm-.246-.59a.586.586,0,0,0-.085-.32.319.319,0,0,0-.258-.11.292.292,0,0,0-.246.11.493.493,0,0,0-.086.32v.64a.489.489,0,0,0,.086.319.286.286,0,0,0,.246.123.3.3,0,0,0,.258-.123.494.494,0,0,0,.085-.319Zm-1.192,8.967a2.975,2.975,0,0,0-.468.738,1.9,1.9,0,0,0-.123.713v.21h-.246v-.21a1.81,1.81,0,0,1,.148-.75,3.478,3.478,0,0,1,.442-.7h-.972v-.2h1.218Zm1.439,1a.734.734,0,0,1-.159.5.525.525,0,0,1-.431.185.516.516,0,0,1-.419-.185.736.736,0,0,1-.172-.5v-.541a.758.758,0,0,1,.16-.492.558.558,0,0,1,.431-.185.541.541,0,0,1,.431.185.7.7,0,0,1,.159.492Zm-.246-.59a.62.62,0,0,0-.085-.32.318.318,0,0,0-.258-.11.291.291,0,0,0-.246.11.516.516,0,0,0-.086.32v.652a.478.478,0,0,0,.086.308.288.288,0,0,0,.246.123.3.3,0,0,0,.258-.123.483.483,0,0,0,.085-.308Zm-1.722,8.747a1.068,1.068,0,0,1,.209.024,1.834,1.834,0,0,1,.185.049l-.061.2a.57.57,0,0,0-.148-.049.76.76,0,0,0-.185-.024.332.332,0,0,0-.283.147.615.615,0,0,0-.11.381v.136a.462.462,0,0,1,.185-.11.493.493,0,0,1,.233-.049.452.452,0,0,1,.369.16.6.6,0,0,1,.148.418.656.656,0,0,1-.16.455.564.564,0,0,1-.419.173.529.529,0,0,1-.43-.2.739.739,0,0,1-.172-.528v-.431a.8.8,0,0,1,.184-.542.589.589,0,0,1,.455-.209Zm-.061.885a.335.335,0,0,0-.2.049.355.355,0,0,0-.136.136v.135a.688.688,0,0,0,.1.369.34.34,0,0,0,.258.135.252.252,0,0,0,.234-.123.454.454,0,0,0,.085-.307.409.409,0,0,0-.085-.283.319.319,0,0,0-.258-.111Zm2.029.345a.7.7,0,0,1-.159.492.525.525,0,0,1-.431.185.516.516,0,0,1-.419-.185.707.707,0,0,1-.172-.492v-.554a.782.782,0,0,1,.16-.491.556.556,0,0,1,.431-.185.54.54,0,0,1,.431.185.721.721,0,0,1,.159.491Zm-.246-.6a.542.542,0,0,0-.085-.307.3.3,0,0,0-.258-.122.273.273,0,0,0-.246.122.456.456,0,0,0-.086.307v.652a.454.454,0,0,0,.086.307.285.285,0,0,0,.246.123.315.315,0,0,0,.258-.111.516.516,0,0,0,.085-.319Zm-2.312,9.8.1-1.033h.935v.233h-.713l-.062.529a.325.325,0,0,1,.124-.073.384.384,0,0,1,.172-.037.518.518,0,0,1,.406.172.681.681,0,0,1,.136.443.642.642,0,0,1-.148.443.515.515,0,0,1-.431.172.6.6,0,0,1-.393-.123.452.452,0,0,1-.148-.381V174.6h.222a.279.279,0,0,0,.1.234.263.263,0,0,0,.221.086.309.309,0,0,0,.246-.111.453.453,0,0,0,.087-.307.432.432,0,0,0-.087-.283.313.313,0,0,0-.246-.11.305.305,0,0,0-.209.05.187.187,0,0,0-.1.135Zm2.559.173a.7.7,0,0,1-.159.492.526.526,0,0,1-.431.184.517.517,0,0,1-.419-.184.705.705,0,0,1-.172-.492V173.9a.793.793,0,0,1,.16-.5.558.558,0,0,1,.431-.185.542.542,0,0,1,.431.185.732.732,0,0,1,.159.5Zm-.246-.6a.539.539,0,0,0-.085-.307.3.3,0,0,0-.258-.123.272.272,0,0,0-.246.123.455.455,0,0,0-.086.307v.652a.512.512,0,0,0,.086.319.309.309,0,0,0,.246.111.319.319,0,0,0,.258-.111.517.517,0,0,0,.085-.319Zm-1.4,10H40.4v.2h-.258v.431H39.9v-.431h-.8V183.9l.775-1.28h.27Zm-.775,0H39.9v-.86h-.013l-.024.06Zm2.423-.024a.7.7,0,0,1-.159.492.527.527,0,0,1-.431.184.518.518,0,0,1-.419-.184.706.706,0,0,1-.172-.492v-.542a.8.8,0,0,1,.16-.5.557.557,0,0,1,.431-.185.541.541,0,0,1,.431.185.735.735,0,0,1,.159.5Zm-.246-.6a.575.575,0,0,0-.085-.308.329.329,0,0,0-.258-.123.3.3,0,0,0-.246.123.48.48,0,0,0-.086.308v.652a.516.516,0,0,0,.086.32.309.309,0,0,0,.246.11.318.318,0,0,0,.258-.11.5.5,0,0,0,.085-.32Zm-1.808,9.583a.325.325,0,0,0,.246-.086.436.436,0,0,0,.062-.234.3.3,0,0,0-.074-.221.266.266,0,0,0-.222-.086.307.307,0,0,0-.233.086.267.267,0,0,0-.1.221h-.246v-.013a.437.437,0,0,1,.16-.344.7.7,0,0,1,.825-.025.492.492,0,0,1,.148.381.442.442,0,0,1-.074.246.486.486,0,0,1-.184.16.475.475,0,0,1,.209.172.464.464,0,0,1,.074.27.51.51,0,0,1-.16.406.656.656,0,0,1-.419.135.634.634,0,0,1-.418-.135.413.413,0,0,1-.172-.369h.246a.269.269,0,0,0,.1.223.4.4,0,0,0,.492,0,.394.394,0,0,0,.087-.247.354.354,0,0,0-.087-.258.314.314,0,0,0-.258-.1h-.2v-.184Zm2.054.393a.738.738,0,0,1-.159.505.557.557,0,0,1-.431.172.548.548,0,0,1-.419-.172.74.74,0,0,1-.172-.505v-.54a.76.76,0,0,1,.16-.492.558.558,0,0,1,.431-.185.542.542,0,0,1,.431.185.7.7,0,0,1,.159.492Zm-.246-.59a.584.584,0,0,0-.085-.32.32.32,0,0,0-.258-.111.293.293,0,0,0-.246.111.491.491,0,0,0-.086.32v.639a.493.493,0,0,0,.086.32.31.31,0,0,0,.246.111.319.319,0,0,0,.258-.111.5.5,0,0,0,.085-.32Zm-1.192,10.615H39.2v-.173l.578-.688a1.32,1.32,0,0,0,.209-.3.5.5,0,0,0,.062-.221.346.346,0,0,0-.074-.222.292.292,0,0,0-.209-.074.274.274,0,0,0-.246.1.335.335,0,0,0-.086.247h-.245a.562.562,0,0,1,.147-.395.615.615,0,0,1,.431-.147.531.531,0,0,1,.393.136.493.493,0,0,1,.135.357.6.6,0,0,1-.074.282,3.023,3.023,0,0,1-.246.345l-.468.554h.849Zm1.439-.652a.737.737,0,0,1-.159.5.525.525,0,0,1-.431.185.516.516,0,0,1-.419-.185.738.738,0,0,1-.172-.5v-.542a.761.761,0,0,1,.16-.492.558.558,0,0,1,.431-.184.542.542,0,0,1,.431.184.7.7,0,0,1,.159.492Zm-.246-.59a.588.588,0,0,0-.085-.32.321.321,0,0,0-.258-.111.294.294,0,0,0-.246.111.494.494,0,0,0-.086.32v.639a.49.49,0,0,0,.086.319.32.32,0,0,0,.246.123.328.328,0,0,0,.258-.123.494.494,0,0,0,.085-.319ZM39.91,212.6h-.246v-1.623h-.406v-.2l.652-.062Zm1.882-.664a.734.734,0,0,1-.159.5.526.526,0,0,1-.431.184.517.517,0,0,1-.419-.184.735.735,0,0,1-.172-.5v-.542a.761.761,0,0,1,.16-.492.559.559,0,0,1,.431-.185.543.543,0,0,1,.431.185.7.7,0,0,1,.159.492Zm-.246-.591a.614.614,0,0,0-.085-.319.317.317,0,0,0-.258-.111.29.29,0,0,0-.246.111.512.512,0,0,0-.086.319v.652a.479.479,0,0,0,.086.307.287.287,0,0,0,.246.123.3.3,0,0,0,.258-.123.483.483,0,0,0,.085-.307Zm-.479,9.977a.765.765,0,0,1-.16.492.559.559,0,0,1-.431.185.539.539,0,0,1-.43-.185.7.7,0,0,1-.16-.492v-.554a.7.7,0,0,1,.16-.492.541.541,0,0,1,.43-.185.561.561,0,0,1,.431.185.765.765,0,0,1,.16.492Zm-.258-.6a.52.52,0,0,0-.086-.32.31.31,0,0,0-.246-.11.319.319,0,0,0-.259.11.614.614,0,0,0-.086.32v.652a.458.458,0,0,0,.1.307.261.261,0,0,0,.246.123.274.274,0,0,0,.246-.123.458.458,0,0,0,.086-.307Z" transform="translate(-38.52 -126.328)"/><rect class="n" width="113.402" height="0.173" transform="translate(5.413 0.811)"/><rect class="n" width="0.16" height="94.573" transform="translate(5.252 0.811)"/><rect class="n" width="113.402" height="0.16" transform="translate(5.413 10.259)"/><rect class="n" width="113.402" height="0.16" transform="translate(5.413 19.694)"/><rect class="n" width="113.402" height="0.16" transform="translate(5.413 29.142)"/><rect class="n" width="113.402" height="0.16" transform="translate(5.413 38.577)"/><rect class="n" width="113.402" height="0.172" transform="translate(5.413 48.012)"/><rect class="n" width="113.402" height="0.16" transform="translate(5.413 57.46)"/><rect class="n" width="113.402" height="0.16" transform="translate(5.413 66.895)"/><rect class="n" width="113.402" height="0.159" transform="translate(5.413 76.343)"/><rect class="n" width="113.402" height="0.16" transform="translate(5.413 85.777)"/><rect class="n" width="113.402" height="0.172" transform="translate(5.413 95.213)"/><rect class="n" width="0.16" height="94.573" transform="translate(28.207 0.811)"/><rect class="n" width="0.16" height="94.573" transform="translate(51.162 0.811)"/><rect class="n" width="0.172" height="94.573" transform="translate(74.104 0.811)"/><rect class="n" width="0.172" height="94.573" transform="translate(97.132 0.811)"/><rect class="n" width="0.172" height="94.573" transform="translate(118.643 0.811)"/></g><rect class="o" width="13.79" height="9.546" transform="translate(48.176 193.149)"/><rect class="p" width="13.79" height="9.546" transform="translate(48.176 202.609)"/><rect class="f" width="13.79" height="9.558" transform="translate(48.176 212.155)"/><rect class="o" width="13.79" height="22.977" transform="translate(71.192 142.174)"/><rect class="p" width="13.79" height="28.404" transform="translate(71.192 164.905)"/><rect class="f" width="13.79" height="28.403" transform="translate(71.192 193.309)"/><rect class="o" width="13.79" height="31.394" transform="translate(94.208 165.065)"/><rect class="p" width="13.79" height="12.682" transform="translate(94.208 196.348)"/><rect class="f" width="13.79" height="12.683" transform="translate(94.208 209.03)"/><rect class="o" width="13.79" height="59.711" transform="translate(140.104 136.747)"/><rect class="p" width="13.79" height="12.682" transform="translate(140.104 196.348)"/><rect class="f" width="13.79" height="12.683" transform="translate(140.104 209.03)"/><rect class="o" width="13.79" height="15.856" transform="translate(117.212 152.898)"/><rect class="p" width="13.79" height="37.09" transform="translate(117.212 168.754)"/><rect class="f" width="13.79" height="15.868" transform="translate(117.212 205.844)"/></g></g><g transform="translate(412 439.367)"><g transform="translate(0 0)"><path class="q" d="M6.381,0h436.6a6.381,6.381,0,0,1,6.381,6.381V301.41a0,0,0,0,1,0,0H0a0,0,0,0,1,0,0V6.381A6.381,6.381,0,0,1,6.381,0Z" transform="translate(46.771)"/><rect class="r" width="263.889" height="411.84" transform="translate(477.371 18.76) rotate(90)"/><path class="s" d="M6.381,0h436.6a6.381,6.381,0,0,1,6.381,6.381V301.41a0,0,0,0,1,0,0H0a0,0,0,0,1,0,0V6.381A6.381,6.381,0,0,1,6.381,0Z" transform="translate(46.771)"/><path class="g" d="M.361,0H542.54a.361.361,0,0,1,.361.361V5.644a0,0,0,0,1,0,0H0a0,0,0,0,1,0,0V.361A.361.361,0,0,1,.361,0Z" transform="translate(0 298.805)"/><path class="t" d="M0,0H62.785a0,0,0,0,1,0,0V3.486A2.418,2.418,0,0,1,60.368,5.9H2.418A2.418,2.418,0,0,1,0,3.486V0A0,0,0,0,1,0,0Z" transform="translate(240.058 298.545)"/><path class="u" d="M-175.967,431.991H-672.5a46.884,46.884,0,0,1-19.271-4.141l-3.915-1.764h542.9l-3.915,1.764A46.883,46.883,0,0,1-175.967,431.991Z" transform="translate(695.685 -121.638)"/><rect class="v" width="263.889" height="411.84" transform="translate(477.371 18.76) rotate(90)"/><ellipse class="w" cx="2.513" cy="2.513" rx="2.513" ry="2.513" transform="translate(268.938 7.472)"/><path class="x" d="M-246.99,285.341v286H-351.409c-85.774-86.469-221.6-223.383-296.172-298.545H-259.55A12.552,12.552,0,0,1-246.99,285.341Z" transform="translate(743.12 -272.797)"/><g transform="translate(73.364 25.719)"><rect class="g" width="92.613" height="249.458" rx="4.011"/><g transform="translate(17.955 12.026)"><g transform="translate(6.407 97.842)"><path class="y" d="M-638.817,342.38a4.48,4.48,0,0,0-3.174-1.315,4.481,4.481,0,0,0-3.174,1.315,4.489,4.489,0,0,0,0,6.35l3.174,3.176,3.174-3.176a4.476,4.476,0,0,0,1.315-3.172A4.49,4.49,0,0,0-638.817,342.38Zm-3.174,5.821a2.645,2.645,0,0,1-2.644-2.644,2.644,2.644,0,0,1,2.644-2.645,2.643,2.643,0,0,1,2.643,2.645A2.644,2.644,0,0,1-641.991,348.2Z" transform="translate(646.48 -341.065)"/></g><g transform="translate(5.415 124.627)"><path class="y" d="M-637.683,360.638a.459.459,0,0,1-.193-.375v0a.463.463,0,0,1,.193-.377l1.5-1.1a.415.415,0,0,0,.111-.542l-.961-1.664a.412.412,0,0,0-.524-.173l-1.72.753a.44.44,0,0,1-.389-.02l-.026-.016a.437.437,0,0,1-.222-.33l-.2-1.867a.422.422,0,0,0-.417-.371h-1.921a.42.42,0,0,0-.413.371l-.206,1.867a.442.442,0,0,1-.218.33l-.028.016a.441.441,0,0,1-.389.02l-1.718-.753a.421.421,0,0,0-.53.173l-.961,1.664a.416.416,0,0,0,.115.542l1.5,1.1a.47.47,0,0,1,.189.377v0a.467.467,0,0,1-.189.375l-1.5,1.1a.418.418,0,0,0-.115.544l.961,1.662a.421.421,0,0,0,.53.175l1.718-.753a.428.428,0,0,1,.389.02l.028.016a.436.436,0,0,1,.218.332l.206,1.863a.417.417,0,0,0,.413.371h1.921a.419.419,0,0,0,.417-.371l.2-1.863a.43.43,0,0,1,.222-.332.083.083,0,0,1,.026-.016.427.427,0,0,1,.389-.02l1.72.753a.413.413,0,0,0,.524-.175l.961-1.662a.417.417,0,0,0-.111-.544Zm-1.472.024a2.381,2.381,0,0,1-1.938,1.944,2.382,2.382,0,0,1-2.747-2.747,2.372,2.372,0,0,1,1.94-1.94A2.377,2.377,0,0,1-639.155,360.662Z" transform="translate(646.98 -354.551)"/></g><g transform="translate(4.405 152.19)"><path class="y" d="M-642.538,370.758a3.959,3.959,0,0,0-3,1.368,4.1,4.1,0,0,0-.393.54l.612.705c.02-.024.036-.05.058-.072a3.6,3.6,0,0,1,2.723-1.243,3.6,3.6,0,0,1,2.725,1.243c.02.022.036.048.054.07l.614-.705a4.1,4.1,0,0,0-.391-.536A3.967,3.967,0,0,0-642.538,370.758Z" transform="translate(649.026 -366.132)"/><path class="y" d="M-641.281,373.059a2.633,2.633,0,0,0-.161-.208,2.383,2.383,0,0,0-1.8-.824,2.378,2.378,0,0,0-1.8.822,2.088,2.088,0,0,0-.163.212l1.962,2.262Z" transform="translate(649.735 -364.882)"/><path class="y" d="M-641,369.5a7.521,7.521,0,0,1,5.688,2.6c.034.038.062.079.093.119l.711-.818A8.564,8.564,0,0,0-641,368.429a8.556,8.556,0,0,0-6.488,2.963l.709.818c.034-.04.062-.081.1-.121A7.518,7.518,0,0,1-641,369.5Z" transform="translate(647.488 -368.429)"/><path class="y" d="M-645.673,372.489a5.174,5.174,0,0,1,3.918-1.79,5.184,5.184,0,0,1,3.925,1.79c.105.123.2.25.3.379l.745-.858c-.065-.085-.131-.173-.2-.254a6.3,6.3,0,0,0-4.767-2.175,6.3,6.3,0,0,0-4.763,2.173c-.072.083-.137.171-.2.256l.747.86C-645.88,372.739-645.781,372.61-645.673,372.489Z" transform="translate(648.243 -367.293)"/></g><g transform="translate(5.308 71.095)"><path class="y" d="M-638.4,336.94h-6.091a.614.614,0,0,1-.594-.457l-1.927-7.255a.615.615,0,0,1,.594-.773h9.944a.616.616,0,0,1,.6.773l-1.926,7.255A.615.615,0,0,1-638.4,336.94Z" transform="translate(647.033 -326.753)"/><path class="y" d="M-639.511,327.6h-5.575a1.086,1.086,0,0,0-1.084,1.086h7.746A1.087,1.087,0,0,0-639.511,327.6Z" transform="translate(647.885 -327.598)"/></g><g transform="translate(5.876 44.038)"><g transform="translate(0 0)"><rect class="f" width="4.587" height="3.913" rx="0.272" transform="translate(0 0)"/><rect class="f" width="4.587" height="5.465" rx="0.255" transform="translate(0 4.689)"/><rect class="f" width="4.587" height="4.045" rx="0.277" transform="translate(10.039 10.154) rotate(180)"/><rect class="f" width="4.587" height="5.465" rx="0.255" transform="translate(10.039 5.465) rotate(180)"/></g></g><g transform="translate(0 44.039)"><rect class="y" width="0.601" height="121.426"/><rect class="f" width="0.601" height="10.306"/></g><g transform="translate(21.904 212.112)"><path class="r" d="M-635.665,404.261l5.337-5.337a1.112,1.112,0,0,1,1.571,0h0a1.11,1.11,0,0,1,0,1.569l-5.339,5.339a1.11,1.11,0,0,1-1.569,0h0A1.112,1.112,0,0,1-635.665,404.261Z" transform="translate(641.328 -398.6)"/><path class="r" d="M-633.016,405.832l-5.337-5.339a1.11,1.11,0,0,1,0-1.569h0a1.11,1.11,0,0,1,1.569,0l5.339,5.337a1.112,1.112,0,0,1,0,1.571h0A1.113,1.113,0,0,1-633.016,405.832Z" transform="translate(638.677 -398.6)"/></g><g transform="translate(3.007)"><path class="f" d="M1.948,0H23.507a1.948,1.948,0,0,1,1.948,1.948V23.508a1.948,1.948,0,0,1-1.948,1.948H1.948A1.948,1.948,0,0,1,0,23.508V1.948A1.948,1.948,0,0,1,1.948,0Z"/><text class="z" transform="translate(6.59 4.859)"><tspan x="3.932" y="6">D</tspan></text></g></g></g><g transform="translate(172.072 25.719)"><rect class="g" width="142.782" height="135.103" rx="2.94"/><g transform="translate(124.65 119.636)"><path class="aa" d="M-542.367,353.818h0a3.918,3.918,0,0,1-3.919-3.919h0a3.917,3.917,0,0,1,3.919-3.917h0a3.917,3.917,0,0,1,3.917,3.917h0A3.917,3.917,0,0,1-542.367,353.818Z" transform="translate(546.286 -345.983)"/><g transform="translate(2.194 2.193)"><line class="aa" y2="3.448" transform="translate(1.724)"/><line class="aa" x1="3.448" transform="translate(0 1.724)"/></g></g><g transform="translate(57.76 11.419)"><text class="ab"><tspan x="57.133" y="6">1,553</tspan></text><text class="ac" transform="translate(50.256 15.986)"><tspan x="13.331" y="3">+4%</tspan></text></g><g transform="translate(10.259 50.7)"><rect class="y" width="8.575" height="122.25" transform="translate(122.25 0) rotate(90)"/><rect class="f" width="8.575" height="51.736" transform="translate(51.736 0) rotate(90)"/><rect class="y" width="8.575" height="122.25" transform="translate(122.25 12.238) rotate(90)"/><rect class="f" width="8.575" height="46.711" transform="translate(46.711 12.238) rotate(90)"/><rect class="y" width="8.574" height="122.25" transform="translate(122.25 24.477) rotate(90)"/><rect class="f" width="8.574" height="68.456" transform="translate(68.456 24.477) rotate(90)"/></g><g transform="translate(10.259 87.539)"><rect class="y" width="8.575" height="122.25" transform="translate(122.25 0) rotate(90)"/><rect class="f" width="8.575" height="87.897" transform="translate(87.897 0) rotate(90)"/><rect class="y" width="8.574" height="122.25" transform="translate(122.25 12.238) rotate(90)"/><rect class="f" width="8.574" height="70.625" transform="translate(70.625 12.238) rotate(90)"/></g><path class="r" d="M-564.006,297.482h-35.78a2.335,2.335,0,0,1-2.334-2.336h0a2.333,2.333,0,0,1,2.334-2.334h35.78a2.335,2.335,0,0,1,2.336,2.334h0A2.337,2.337,0,0,1-564.006,297.482Z" transform="translate(615.879 -278.778)"/></g><path class="r" d="M-607.535,317.392h-29.12a.705.705,0,0,1-.7-.705h0a.707.707,0,0,1,.7-.707h29.12a.707.707,0,0,1,.707.707h0A.706.706,0,0,1-607.535,317.392Z" transform="translate(753.199 -230.214)"/><path class="r" d="M-607.535,331.292h-29.12a.705.705,0,0,1-.7-.705h0a.706.706,0,0,1,.7-.707h29.12a.706.706,0,0,1,.707.707h0A.706.706,0,0,1-607.535,331.292Z" transform="translate(753.199 -216.507)"/><path class="r" d="M-607.535,345.192h-29.12a.706.706,0,0,1-.7-.707h0a.705.705,0,0,1,.7-.705h29.12a.706.706,0,0,1,.707.705h0A.706.706,0,0,1-607.535,345.192Z" transform="translate(753.199 -202.8)"/><path class="r" d="M-607.535,359.09h-29.12a.705.705,0,0,1-.7-.705h0a.705.705,0,0,1,.7-.705h29.12a.706.706,0,0,1,.707.705h0A.706.706,0,0,1-607.535,359.09Z" transform="translate(753.199 -189.094)"/><path class="r" d="M-607.535,372.991h-29.12a.705.705,0,0,1-.7-.705h0a.706.706,0,0,1,.7-.707h29.12a.706.706,0,0,1,.707.707h0A.706.706,0,0,1-607.535,372.991Z" transform="translate(753.199 -175.388)"/><g transform="translate(172.072 172.429)"><g transform="translate(0)"><rect class="g" width="95.016" height="285.892" rx="3.112" transform="translate(0 95.016) rotate(-90)"/><g transform="translate(120.413 15.915)"><path class="aa" d="M-532.111,375.781h0a8.154,8.154,0,0,1-8.153,8.155h0a8.154,8.154,0,0,1-8.155-8.155h0a8.154,8.154,0,0,1,8.155-8.153h0A8.153,8.153,0,0,1-532.111,375.781Z" transform="translate(548.419 -367.628)"/><g transform="translate(4.565 4.564)"><line class="aa" x2="7.179" transform="translate(0 3.59)"/><line class="aa" y2="7.179" transform="translate(3.59)"/></g></g><g transform="translate(155.012 15.433)"><g transform="translate(0)"><ellipse class="y" cx="5.406" cy="5.406" rx="5.406" ry="5.406" transform="translate(0 63.207) rotate(-80.71)"/><path class="y" d="M-525.189,385.289a5.406,5.406,0,0,1,5.406,5.406,5.407,5.407,0,0,1-5.406,5.406,5.407,5.407,0,0,1-5.406-5.406A5.406,5.406,0,0,1-525.189,385.289Z" transform="translate(531.396 -349.73)"/><ellipse class="y" cx="5.406" cy="5.406" rx="5.406" ry="5.406" transform="translate(0 27.648) rotate(-80.71)"/><path class="y" d="M-525.189,367.385a5.406,5.406,0,0,1,5.406,5.406,5.407,5.407,0,0,1-5.406,5.406,5.407,5.407,0,0,1-5.406-5.406A5.406,5.406,0,0,1-525.189,367.385Z" transform="translate(531.396 -367.385)"/></g><g transform="translate(20.744)"><ellipse class="y" cx="5.406" cy="5.406" rx="5.406" ry="5.406" transform="translate(0 53.339)"/><path class="y" d="M-515.148,385.289a5.406,5.406,0,0,1,5.406,5.406,5.407,5.407,0,0,1-5.406,5.406,5.407,5.407,0,0,1-5.406-5.406A5.406,5.406,0,0,1-515.148,385.289Z" transform="translate(520.554 -349.73)"/><ellipse class="y" cx="5.406" cy="5.406" rx="5.406" ry="5.406" transform="translate(0 17.779)"/><path class="y" d="M-515.148,367.385a5.406,5.406,0,0,1,5.406,5.406,5.407,5.407,0,0,1-5.406,5.406,5.407,5.407,0,0,1-5.406-5.406A5.406,5.406,0,0,1-515.148,367.385Z" transform="translate(520.554 -367.385)"/></g><g transform="translate(40.686)"><ellipse class="y" cx="5.406" cy="5.406" rx="5.406" ry="5.406" transform="translate(0 53.339)"/><path class="f" d="M-505.107,385.289A5.406,5.406,0,0,1-499.7,390.7a5.407,5.407,0,0,1-5.406,5.406,5.406,5.406,0,0,1-5.406-5.406A5.4,5.4,0,0,1-505.107,385.289Z" transform="translate(510.513 -349.73)"/><ellipse class="f" cx="5.406" cy="5.406" rx="5.406" ry="5.406" transform="translate(0 17.779)"/><path class="f" d="M-505.107,367.385a5.406,5.406,0,0,1,5.406,5.406,5.407,5.407,0,0,1-5.406,5.406,5.406,5.406,0,0,1-5.406-5.406A5.4,5.4,0,0,1-505.107,367.385Z" transform="translate(510.513 -367.385)"/></g><g transform="translate(60.629)"><path class="f" d="M-495.066,394.241a5.4,5.4,0,0,1,5.4,5.406,5.405,5.405,0,0,1-5.4,5.406,5.406,5.406,0,0,1-5.406-5.406A5.4,5.4,0,0,1-495.066,394.241Z" transform="translate(500.472 -340.902)"/><path class="f" d="M-495.066,385.289a5.4,5.4,0,0,1,5.4,5.406,5.405,5.405,0,0,1-5.4,5.406,5.406,5.406,0,0,1-5.406-5.406A5.4,5.4,0,0,1-495.066,385.289Z" transform="translate(500.472 -349.73)"/><path class="f" d="M-495.066,376.337a5.4,5.4,0,0,1,5.4,5.406,5.405,5.405,0,0,1-5.4,5.406,5.406,5.406,0,0,1-5.406-5.406A5.4,5.4,0,0,1-495.066,376.337Z" transform="translate(500.472 -358.557)"/><path class="f" d="M-495.066,367.385a5.4,5.4,0,0,1,5.4,5.406,5.405,5.405,0,0,1-5.4,5.406,5.406,5.406,0,0,1-5.406-5.406A5.4,5.4,0,0,1-495.066,367.385Z" transform="translate(500.472 -367.385)"/></g><g transform="translate(80.569)"><path class="f" d="M-485.026,394.241a5.4,5.4,0,0,1,5.406,5.406,5.406,5.406,0,0,1-5.406,5.406,5.407,5.407,0,0,1-5.406-5.406A5.406,5.406,0,0,1-485.026,394.241Z" transform="translate(490.432 -340.902)"/><path class="f" d="M-485.026,385.289a5.4,5.4,0,0,1,5.406,5.406,5.406,5.406,0,0,1-5.406,5.406,5.407,5.407,0,0,1-5.406-5.406A5.406,5.406,0,0,1-485.026,385.289Z" transform="translate(490.432 -349.73)"/><path class="f" d="M-485.026,376.337a5.4,5.4,0,0,1,5.406,5.406,5.406,5.406,0,0,1-5.406,5.406,5.407,5.407,0,0,1-5.406-5.406A5.406,5.406,0,0,1-485.026,376.337Z" transform="translate(490.432 -358.557)"/><path class="f" d="M-485.026,367.385a5.4,5.4,0,0,1,5.406,5.406,5.406,5.406,0,0,1-5.406,5.406,5.407,5.407,0,0,1-5.406-5.406A5.406,5.406,0,0,1-485.026,367.385Z" transform="translate(490.432 -367.385)"/></g><g transform="translate(100.512)"><ellipse class="f" cx="5.406" cy="5.406" rx="5.406" ry="5.406" transform="translate(0.001 53.339)"/><path class="f" d="M-474.985,385.289a5.406,5.406,0,0,1,5.406,5.406,5.407,5.407,0,0,1-5.406,5.406,5.407,5.407,0,0,1-5.406-5.406A5.406,5.406,0,0,1-474.985,385.289Z" transform="translate(480.391 -349.73)"/><ellipse class="f" cx="5.406" cy="5.406" rx="5.406" ry="5.406" transform="translate(0.001 17.779)"/><path class="f" d="M-474.985,367.385a5.406,5.406,0,0,1,5.406,5.406,5.407,5.407,0,0,1-5.406,5.406,5.407,5.407,0,0,1-5.406-5.406A5.406,5.406,0,0,1-474.985,367.385Z" transform="translate(480.391 -367.385)"/></g></g></g><path class="r" d="M-480.659,386.448H-599.785a2.334,2.334,0,0,1-2.334-2.334h0a2.333,2.333,0,0,1,2.334-2.334h119.127a2.334,2.334,0,0,1,2.334,2.334h0A2.334,2.334,0,0,1-480.659,386.448Z" transform="translate(615.879 -337.756)"/><path class="r" d="M-480.659,393.051H-599.785a2.335,2.335,0,0,1-2.334-2.336h0a2.333,2.333,0,0,1,2.334-2.334h119.127a2.334,2.334,0,0,1,2.334,2.334h0A2.335,2.335,0,0,1-480.659,393.051Z" transform="translate(615.879 -331.247)"/><path class="r" d="M-566.363,399.651h-33.422a2.334,2.334,0,0,1-2.334-2.334h0a2.333,2.333,0,0,1,2.334-2.334h33.422a2.334,2.334,0,0,1,2.334,2.334h0A2.334,2.334,0,0,1-566.363,399.651Z" transform="translate(615.879 -324.737)"/><path class="r" d="M-566.363,374.593h-33.422a2.333,2.333,0,0,1-2.334-2.334h0a2.333,2.333,0,0,1,2.334-2.334h33.422a2.334,2.334,0,0,1,2.334,2.334h0A2.334,2.334,0,0,1-566.363,374.593Z" transform="translate(615.879 -349.446)"/></g><g transform="translate(318.962 25.72)"><path class="g" d="M-396.794,290.645v125.3a4.9,4.9,0,0,1-4.9,4.91H-530.18a4.906,4.906,0,0,1-4.908-4.91v-125.3a4.9,4.9,0,0,1,4.908-4.9h128.489A4.894,4.894,0,0,1-396.794,290.645Z" transform="translate(535.088 -285.747)"/><g transform="translate(120.404 7.486)"><path class="aa" d="M-469.043,300.36h0a5.421,5.421,0,0,1-5.422-5.422h0a5.421,5.421,0,0,1,5.422-5.422h0a5.421,5.421,0,0,1,5.422,5.422h0A5.421,5.421,0,0,1-469.043,300.36Z" transform="translate(474.465 -289.516)"/><g transform="translate(3.035 3.035)"><line class="aa" y2="4.774" transform="translate(2.387)"/><line class="aa" x1="4.774" transform="translate(0 2.387)"/></g></g><path class="f" d="M-396.794,298.735v104.4a4.9,4.9,0,0,1-4.9,4.91H-530.18a4.906,4.906,0,0,1-4.908-4.91V325.261s13.067-6.016,32.241-6.016,27.837,12.373,48.209,12.373S-423.06,298.735-396.794,298.735Z" transform="translate(535.088 -272.939)"/><g transform="translate(78.292 56.521)"><path class="y" d="M-491.354,316.364a2.158,2.158,0,0,1-2.157,2.157,2.159,2.159,0,0,1-2.157-2.157,2.159,2.159,0,0,1,2.157-2.159A2.158,2.158,0,0,1-491.354,316.364Z" transform="translate(495.668 -314.205)"/></g><path class="r" d="M-490.11,297.482h-35.782a2.335,2.335,0,0,1-2.334-2.336h0a2.334,2.334,0,0,1,2.334-2.334h35.782a2.333,2.333,0,0,1,2.334,2.334h0A2.335,2.335,0,0,1-490.11,297.482Z" transform="translate(541.856 -278.779)"/></g></g></g></g></svg>